<svg class="diagram-root" style="background: #f5f6f6" xmlns="http://www.w3.org/2000/svg" xmlns:xlink="http://www.w3.org/1999/xlink"><style>.diagram-root { font-family: "Helvetica Neue", sans-serif; font-size: 12px; } .t { overflow: visible; } .t-bg { y: 40; fill: #fff;   } .th { fill: #005aa0;   } .tht { fill: #fff; font-size: 14px;  } .tf { fill: #323c46; overflow: visible; } .tf.pk { fill: #005aa0; font-weight: bold; } .tf.fk { font-weight: bold; } .ty { fill: #adb1b5; font-weight: normal; text-anchor: end; } .r { fill: transparent; stroke: #c3c3c3; stroke-width: 1; } .l { stroke: 1; } .i { fill: #c2c7ce; stroke: #c2c7ce; } .i.ix { fill: #afb3b6; stroke: #000; } .fa { fill: transparent; overflow: visible; } .fa .bg.hover { fill: #f7f7f7; } .c { cy: 12; r: 4; stroke: #d2d2dc; fill: #d2d2dc; } .hr { fill: transparent; stroke: #323c46; stroke-opacity: 0.035; stroke-width: 13; } .dc { stroke: #fa5a3c; fill: #fa5a3c; } .x { stroke: white; stroke-width: 1; } .hl .th { fill: #1b9bff; } .hl .tht {  } .fhl .bg { fill: #e7f4ff; } .fhls .bg {  } .r.hl { stroke: #1b9bff; } .dim { opacity: 0.25; }</style><g class="drawing-wrapper" transform="translate(2, 22) scale(1,1)"><g class="rs"><path d="M 323 140 m -1, 0 a 1,1 0 1,0 2,0 a 1,1 0 1,0 -2,0 M 323 140 m -0.5, 0 a 0.5,0.5 0 1,0 1,0 a 0.5,0.5 0 1,0 -1,0  M323 140 L323 140 311 140 M 323 146 m -1, 0 a 1,1 0 1,0 2,0 a 1,1 0 1,0 -2,0 M 323 146 m -0.5, 0 a 0.5,0.5 0 1,0 1,0 a 0.5,0.5 0 1,0 -1,0  M323 146 L323 146 316 140 323 134 M 323 134 m -1, 0 a 1,1 0 1,0 2,0 a 1,1 0 1,0 -2,0 M 323 134 m -0.5, 0 a 0.5,0.5 0 1,0 1,0 a 0.5,0.5 0 1,0 -1,0  M311 140 Q 277.08 140, 243.17 113.5 T 175.33 87 M 163.33 87 m -1, 0 a 1,1 0 1,0 2,0 a 1,1 0 1,0 -2,0 M 163.33 87 m -0.5, 0 a 0.5,0.5 0 1,0 1,0 a 0.5,0.5 0 1,0 -1,0  M163.33 87 L163.33 87 175.33 87 M169.33 93 L169.33 93 169.33 81" id="h2539193521" class="r"></path><path d="M 386 405 m -1, 0 a 1,1 0 1,0 2,0 a 1,1 0 1,0 -2,0 M 386 405 m -0.5, 0 a 0.5,0.5 0 1,0 1,0 a 0.5,0.5 0 1,0 -1,0  M386 405 L386 405 374 405 M 386 411 m -1, 0 a 1,1 0 1,0 2,0 a 1,1 0 1,0 -2,0 M 386 411 m -0.5, 0 a 0.5,0.5 0 1,0 1,0 a 0.5,0.5 0 1,0 -1,0  M386 411 L386 411 379 405 386 399 M 386 399 m -1, 0 a 1,1 0 1,0 2,0 a 1,1 0 1,0 -2,0 M 386 399 m -0.5, 0 a 0.5,0.5 0 1,0 1,0 a 0.5,0.5 0 1,0 -1,0  M374 405 Q 324.34 405, 274.67 246 T 175.33 87 M 163.33 87 m -1, 0 a 1,1 0 1,0 2,0 a 1,1 0 1,0 -2,0 M 163.33 87 m -0.5, 0 a 0.5,0.5 0 1,0 1,0 a 0.5,0.5 0 1,0 -1,0  M163.33 87 L163.33 87 175.33 87 M 163.33 93 m -1, 0 a 1,1 0 1,0 2,0 a 1,1 0 1,0 -2,0 M 163.33 93 m -0.5, 0 a 0.5,0.5 0 1,0 1,0 a 0.5,0.5 0 1,0 -1,0  M163.33 93 L163.33 93 170.33 87 163.33 81 M 163.33 81 m -1, 0 a 1,1 0 1,0 2,0 a 1,1 0 1,0 -2,0 M 163.33 81 m -0.5, 0 a 0.5,0.5 0 1,0 1,0 a 0.5,0.5 0 1,0 -1,0 " id="h3875865905" class="r"></path><path d="M 506 430 m -1, 0 a 1,1 0 1,0 2,0 a 1,1 0 1,0 -2,0 M 506 430 m -0.5, 0 a 0.5,0.5 0 1,0 1,0 a 0.5,0.5 0 1,0 -1,0  M506 430 L506 430 518 430 M 506 436 m -1, 0 a 1,1 0 1,0 2,0 a 1,1 0 1,0 -2,0 M 506 436 m -0.5, 0 a 0.5,0.5 0 1,0 1,0 a 0.5,0.5 0 1,0 -1,0  M506 436 L506 436 513 430 506 424 M 506 424 m -1, 0 a 1,1 0 1,0 2,0 a 1,1 0 1,0 -2,0 M 506 424 m -0.5, 0 a 0.5,0.5 0 1,0 1,0 a 0.5,0.5 0 1,0 -1,0  M518 430 C 568 430, 602.188 65, 461.02 65 M 449.02 65 m -1, 0 a 1,1 0 1,0 2,0 a 1,1 0 1,0 -2,0 M 449.02 65 m -0.5, 0 a 0.5,0.5 0 1,0 1,0 a 0.5,0.5 0 1,0 -1,0  M449.02 65 L449.02 65 461.02 65 M 449.02 71 m -1, 0 a 1,1 0 1,0 2,0 a 1,1 0 1,0 -2,0 M 449.02 71 m -0.5, 0 a 0.5,0.5 0 1,0 1,0 a 0.5,0.5 0 1,0 -1,0  M449.02 71 L449.02 71 456.02 65 449.02 59 M 449.02 59 m -1, 0 a 1,1 0 1,0 2,0 a 1,1 0 1,0 -2,0 M 449.02 59 m -0.5, 0 a 0.5,0.5 0 1,0 1,0 a 0.5,0.5 0 1,0 -1,0 " id="h3692689038" class="r"></path></g><g class="hrs"></g><g class="ts"><svg width="133.33" height="200" x="30" y="30" id="h2948373614" class="t"><rect height="40" width="133.33" class="th"></rect><text x="13" y="25" class="tht">users</text><rect height="160" width="133.33" class="t-bg" y="40"></rect><text x="13" y="61" class="tf pk">id<tspan x="120.33000000000001" class="ty">int</tspan></text><path d="M7,14A2,2 0 0,1 5,12A2,2 0 0,1 7,10A2,2 0 0,1 9,12A2,2 0 0,1 7,14M12.65,10C11.83,7.67 9.61,6 7, 6A6, 6 0 0, 0 1, 12A6, 6 0 0, 0 7, 18C9.61, 18 11.83, 16.33 12.65, 14H17V18H21V14H23V10H12.65Z" class="i pk" transform="translate(87.6633330154419, 48) scale(0.65)"></path><text x="13" y="86" class="tf">username<tspan x="120.33000000000001" class="ty">Text</tspan></text><text x="13" y="111" class="tf">password<tspan x="120.33000000000001" class="ty">Text</tspan></text><text x="13" y="136" class="tf">email<tspan x="120.33000000000001" class="ty">String</tspan></text><text x="13" y="161" class="tf">first_name<tspan x="120.33000000000001" class="ty">String</tspan></text><text x="13" y="186" class="tf">last_name<tspan x="120.33000000000001" class="ty">String</tspan></text></svg><svg width="126.02" height="150" x="323" y="8" id="h3286304071" class="t"><rect height="40" width="126.02" class="th"></rect><text x="13" y="25" class="tht">favorites</text><rect height="110" width="126.02" class="t-bg" y="40"></rect><text x="13" y="61" class="tf pk">id<tspan x="113.02" class="ty">int</tspan></text><path d="M7,14A2,2 0 0,1 5,12A2,2 0 0,1 7,10A2,2 0 0,1 9,12A2,2 0 0,1 7,14M12.65,10C11.83,7.67 9.61,6 7, 6A6, 6 0 0, 0 1, 12A6, 6 0 0, 0 7, 18C9.61, 18 11.83, 16.33 12.65, 14H17V18H21V14H23V10H12.65Z" class="i pk" transform="translate(80.35333301544189, 48) scale(0.65)"></path><text x="13" y="86" class="tf">name<tspan x="113.02" class="ty">String</tspan></text><text x="13" y="111" class="tf">description<tspan x="113.02" class="ty">Text</tspan></text><text x="13" y="136" class="tf fk">user_id<tspan x="113.02" class="ty">int</tspan></text></svg><svg width="120" height="175" x="386" y="273" id="h1239104749" class="t"><rect height="40" width="120" class="th"></rect><text x="13" y="25" class="tht">business</text><rect height="135" width="120" class="t-bg" y="40"></rect><text x="13" y="61" class="tf pk">id<tspan x="107" class="ty">int</tspan></text><path d="M7,14A2,2 0 0,1 5,12A2,2 0 0,1 7,10A2,2 0 0,1 9,12A2,2 0 0,1 7,14M12.65,10C11.83,7.67 9.61,6 7, 6A6, 6 0 0, 0 1, 12A6, 6 0 0, 0 7, 18C9.61, 18 11.83, 16.33 12.65, 14H17V18H21V14H23V10H12.65Z" class="i pk" transform="translate(74.3333330154419, 48) scale(0.65)"></path><text x="13" y="86" class="tf">name<tspan x="107" class="ty">String</tspan></text><text x="13" y="111" class="tf">map_url<tspan x="107" class="ty">Text</tspan></text><text x="13" y="136" class="tf fk">user_id<tspan x="107" class="ty">int</tspan></text><text x="13" y="161" class="tf fk">favorites_id<tspan x="107" class="ty">int</tspan></text></svg></g></g><text class="qdbd-link" x="10" y="20">www.quickdatabasediagrams.com</text></svg>