<svg class="diagram-root" style="background: #f5f6f6" xmlns="http://www.w3.org/2000/svg" xmlns:xlink="http://www.w3.org/1999/xlink"><style>.diagram-root { font-family: "Helvetica Neue", sans-serif; font-size: 12px; } .t { overflow: visible; } .t-bg { y: 40; fill: #fff;   } .th { fill: #005aa0;   } .tht { fill: #fff; font-size: 14px;  } .tf { fill: #323c46; overflow: visible; } .tf.pk { fill: #005aa0; font-weight: bold; } .tf.fk { font-weight: bold; } .ty { fill: #adb1b5; font-weight: normal; text-anchor: end; } .r { fill: transparent; stroke: #c3c3c3; stroke-width: 1; } .l { stroke: 1; } .i { fill: #c2c7ce; stroke: #c2c7ce; } .i.ix { fill: #afb3b6; stroke: #000; } .fa { fill: transparent; overflow: visible; } .fa .bg.hover { fill: #f7f7f7; } .c { cy: 12; r: 4; stroke: #d2d2dc; fill: #d2d2dc; } .hr { fill: transparent; stroke: #323c46; stroke-opacity: 0.035; stroke-width: 13; } .dc { stroke: #fa5a3c; fill: #fa5a3c; } .x { stroke: white; stroke-width: 1; } .hl .th { fill: #1b9bff; } .hl .tht {  } .fhl .bg { fill: #e7f4ff; } .fhls .bg {  } .r.hl { stroke: #1b9bff; } .dim { opacity: 0.25; }</style><g class="drawing-wrapper" transform="translate(2, 18) scale(1,1)"><g class="rs"><path d="M 163.33 87 m -1, 0 a 1,1 0 1,0 2,0 a 1,1 0 1,0 -2,0 M 163.33 87 m -0.5, 0 a 0.5,0.5 0 1,0 1,0 a 0.5,0.5 0 1,0 -1,0  M163.33 87 L163.33 87 175.33 87 M169.33 93 L169.33 93 169.33 81 M175.33 87 Q 199.5 87, 223.67 124.5 T 272 162 M 284 162 m -1, 0 a 1,1 0 1,0 2,0 a 1,1 0 1,0 -2,0 M 284 162 m -0.5, 0 a 0.5,0.5 0 1,0 1,0 a 0.5,0.5 0 1,0 -1,0  M284 162 L284 162 272 162 M 284 168 m -1, 0 a 1,1 0 1,0 2,0 a 1,1 0 1,0 -2,0 M 284 168 m -0.5, 0 a 0.5,0.5 0 1,0 1,0 a 0.5,0.5 0 1,0 -1,0  M284 168 L284 168 277 162 284 156 M 284 156 m -1, 0 a 1,1 0 1,0 2,0 a 1,1 0 1,0 -2,0 M 284 156 m -0.5, 0 a 0.5,0.5 0 1,0 1,0 a 0.5,0.5 0 1,0 -1,0 " id="h3461524613" class="r"></path><path d="M 410 187 m -1, 0 a 1,1 0 1,0 2,0 a 1,1 0 1,0 -2,0 M 410 187 m -0.5, 0 a 0.5,0.5 0 1,0 1,0 a 0.5,0.5 0 1,0 -1,0  M410 187 L410 187 422 187 M 410 193 m -1, 0 a 1,1 0 1,0 2,0 a 1,1 0 1,0 -2,0 M 410 193 m -0.5, 0 a 0.5,0.5 0 1,0 1,0 a 0.5,0.5 0 1,0 -1,0  M410 193 L410 193 417 187 410 181 M 410 181 m -1, 0 a 1,1 0 1,0 2,0 a 1,1 0 1,0 -2,0 M 410 181 m -0.5, 0 a 0.5,0.5 0 1,0 1,0 a 0.5,0.5 0 1,0 -1,0  M422 187 Q 450.5 187, 479 140.5 T 536 94 M 548 94 m -1, 0 a 1,1 0 1,0 2,0 a 1,1 0 1,0 -2,0 M 548 94 m -0.5, 0 a 0.5,0.5 0 1,0 1,0 a 0.5,0.5 0 1,0 -1,0  M548 94 L548 94 536 94 M 548 100 m -1, 0 a 1,1 0 1,0 2,0 a 1,1 0 1,0 -2,0 M 548 100 m -0.5, 0 a 0.5,0.5 0 1,0 1,0 a 0.5,0.5 0 1,0 -1,0  M548 100 L548 100 541 94 548 88 M 548 88 m -1, 0 a 1,1 0 1,0 2,0 a 1,1 0 1,0 -2,0 M 548 88 m -0.5, 0 a 0.5,0.5 0 1,0 1,0 a 0.5,0.5 0 1,0 -1,0 " id="h3278211537" class="r"></path></g><g class="hrs"></g><g class="ts"><svg width="133.33" height="175" x="30" y="30" id="h2948373614" class="t"><rect height="40" width="133.33" class="th"></rect><text x="13" y="25" class="tht">users</text><rect height="135" width="133.33" class="t-bg" y="40"></rect><text x="13" y="61" class="tf pk">id<tspan x="120.33000000000001" class="ty">int</tspan></text><path d="M7,14A2,2 0 0,1 5,12A2,2 0 0,1 7,10A2,2 0 0,1 9,12A2,2 0 0,1 7,14M12.65,10C11.83,7.67 9.61,6 7, 6A6, 6 0 0, 0 1, 12A6, 6 0 0, 0 7, 18C9.61, 18 11.83, 16.33 12.65, 14H17V18H21V14H23V10H12.65Z" class="i pk" transform="translate(87.6633330154419, 48) scale(0.65)"></path><text x="13" y="86" class="tf">email<tspan x="120.33000000000001" class="ty">String</tspan></text><text x="13" y="111" class="tf">password<tspan x="120.33000000000001" class="ty">Text</tspan></text><text x="13" y="136" class="tf">first_name<tspan x="120.33000000000001" class="ty">String</tspan></text><text x="13" y="161" class="tf">last_name<tspan x="120.33000000000001" class="ty">String</tspan></text></svg><svg width="126" height="175" x="284" y="30" id="h3286304071" class="t"><rect height="40" width="126" class="th"></rect><text x="13" y="25" class="tht">favorites</text><rect height="135" width="126" class="t-bg" y="40"></rect><text x="13" y="61" class="tf pk">id<tspan x="113" class="ty">int</tspan></text><path d="M7,14A2,2 0 0,1 5,12A2,2 0 0,1 7,10A2,2 0 0,1 9,12A2,2 0 0,1 7,14M12.65,10C11.83,7.67 9.61,6 7, 6A6, 6 0 0, 0 1, 12A6, 6 0 0, 0 7, 18C9.61, 18 11.83, 16.33 12.65, 14H17V18H21V14H23V10H12.65Z" class="i pk" transform="translate(80.3333330154419, 48) scale(0.65)"></path><text x="13" y="86" class="tf">name<tspan x="113" class="ty">String</tspan></text><text x="13" y="111" class="tf">description<tspan x="113" class="ty">Text</tspan></text><text x="13" y="136" class="tf fk">user_id<tspan x="113" class="ty">int</tspan></text><text x="13" y="161" class="tf fk">business_id<tspan x="113" class="ty">int</tspan></text></svg><svg width="110.67" height="125" x="548" y="37" id="h2042339536" class="t"><rect height="40" width="110.67" class="th"></rect><text x="13" y="25" class="tht">businesses</text><rect height="85" width="110.67" class="t-bg" y="40"></rect><text x="13" y="61" class="tf pk">id<tspan x="97.67" class="ty">int</tspan></text><path d="M7,14A2,2 0 0,1 5,12A2,2 0 0,1 7,10A2,2 0 0,1 9,12A2,2 0 0,1 7,14M12.65,10C11.83,7.67 9.61,6 7, 6A6, 6 0 0, 0 1, 12A6, 6 0 0, 0 7, 18C9.61, 18 11.83, 16.33 12.65, 14H17V18H21V14H23V10H12.65Z" class="i pk" transform="translate(65.0033330154419, 48) scale(0.65)"></path><text x="13" y="86" class="tf">name<tspan x="97.67" class="ty">String</tspan></text><text x="13" y="111" class="tf">google_id<tspan x="97.67" class="ty">int</tspan></text></svg></g></g><text class="qdbd-link" x="10" y="20">www.quickdatabasediagrams.com</text></svg>